# xmcd
#
# Track frame offsets:
#	150
#	15179
#	38397
#	55258
#	71848
#	91801
#	108150
#	118670
#	130882
#	144861
#	164669
#	178172
#	190586
#	205861
#	229371
#	246290
#	264539
#	289803
#	303554
#	324527
#	337963
#
# Disc length: 4704 seconds
#
# Revision: 0
# Processed by: cddbd v1.5.2PL0 Copyright (c) Steve Scherf et al.
# Submitted via: EasyCDDAExtractor 15.3.0.1
#
DISCID=29125e15
DTITLE=Safet Isović - Zapisano u Vremenu CD2
DYEAR=2009
DGENRE=SEVDALINKE
TTITLE0=Ako Me Još Voliš
TTITLE1=Sjaj Mjeseče Žut
TTITLE2=Stara Staza
TTITLE3=Šeher Grade, Banja Luko Mila
TTITLE4=Spremio Sam Svog Dorata
TTITLE5=Ja u Klin Ti u Ploču
TTITLE6=Idem Kući a Već Zora
TTITLE7=Propio Se Dojčin Petar
TTITLE8=U Baštici Ruža Vene
TTITLE9=Bosno Moja
TTITLE10=Jahao Sam Konje, Ašikovo, Pio
TTITLE11=Ženo Bola Mog
TTITLE12=Nit' s Tobom, Nit' Bez Tebe
TTITLE13=Gledaj Me Draga
TTITLE14=Pjesma Sarajevu
TTITLE15=Sevdahom Sam Goru Okitio
TTITLE16=Pjesma Neretvi
TTITLE17=Čudila Se Aman Ja
TTITLE18=Sinoć Dođe Tuđe Momče
TTITLE19=Sa Jablana Crven Listić Pao
TTITLE20=Konja Vodim
EXTD=
EXTT0=
EXTT1=
EXTT2=
EXTT3=
EXTT4=
EXTT5=
EXTT6=
EXTT7=
EXTT8=
EXTT9=
EXTT10=
EXTT11=
EXTT12=
EXTT13=
EXTT14=
EXTT15=
EXTT16=
EXTT17=
EXTT18=
EXTT19=
EXTT20=
PLAYORDER=
